<svg width="35" height="35" viewBox="0 0 35 35" fill="none" xmlns="http://www.w3.org/2000/svg">
<path d="M7.29167 9.8769H13.4167M13.4167 9.8769V8.02083C13.4167 7.21543 14.0696 6.5625 14.875 6.5625H20.125C20.9304 6.5625 21.5833 7.21543 21.5833 8.02083V9.8769M13.4167 9.8769H21.5833M27.7083 9.8769H21.5833M9.33334 12.5284V23.1344C9.33334 25.6343 9.33334 26.8842 10.1307 27.6609C10.928 28.4375 12.2112 28.4375 14.7777 28.4375H20.2223C22.7888 28.4375 24.072 28.4375 24.8694 27.6609C25.6667 26.8842 25.6667 25.6343 25.6667 23.1344V12.5284M13.4167 15.1799V23.1344M17.5 15.1799V23.1344M21.5833 15.1799V23.1344" stroke="black" stroke-width="2.66667" stroke-linecap="round" stroke-linejoin="round"/>
</svg>
